<svg width="58" height="20" viewBox="0 0 58 20" fill="none" xmlns="http://www.w3.org/2000/svg">
<path fill-rule="evenodd" clip-rule="evenodd" d="M11.5584 14.784C8.05659 17.97 3.64191 14.8799 3.82799 11.3644C3.96638 8.75152 6.65821 5.99364 10.0831 7.34861L11.329 4.46612C3.90291 2.04867 -0.0442052 8.3937 0.798994 12.6676C2.16237 19.5768 9.61797 20.8762 13.7222 17.0441L11.5584 14.784ZM15.1483 9.33022L15.2139 18.8947H18.1316L18.1643 9.33022C18.2634 6.55198 15.405 5.97308 13.8696 5.3669L12.6239 8.21662L15.1483 9.33022ZM24.5104 4.58132C20.7836 6.24096 18.5938 11.2703 21.41 15.6846L35.2776 9.78864C33.813 4.4444 28.465 2.82021 24.5105 4.58132H24.5104ZM23.2295 12.0651C23.1766 6.86387 28.6735 5.49911 31.1631 8.6586L23.2295 12.0651ZM30.9174 14.7677C29.3418 16.2873 27.4841 16.4839 25.3441 15.3572L23.7049 17.9776C27.3898 19.8099 29.8268 19.6244 33.1794 17.0277L30.9174 14.7677ZM36.7201 0.421021L36.7528 15.39C36.7439 18.1646 39.614 18.542 41.0147 19.1896L42.1621 16.3399L39.6706 15.2263L39.6049 0.421021H36.7201ZM43.408 8.18357C40.1918 15.459 48.4054 22.843 55.4724 17.1913L53.407 14.8984C50.5124 18.0541 43.912 14.4619 46.2929 9.62482L43.408 8.18357Z" fill="black"/>
<path fill-rule="evenodd" clip-rule="evenodd" d="M47.3255 8.23298C50.7957 5.05744 56.4783 8.48587 54.4397 13.5066L57.2918 14.8495C60.7164 6.22206 50.914 0.773765 45.1946 5.87462L47.3255 8.23298ZM16.6727 4.31846C17.8223 4.31846 18.7544 3.39462 18.7544 2.25498C18.7544 1.11534 17.8223 0.191406 16.6727 0.191406C15.5229 0.191406 14.5908 1.11524 14.5908 2.25498C14.5908 3.39472 15.5229 4.31846 16.6727 4.31846Z" fill="#01AEF0"/>
</svg>
